<svg width="60" height="60" viewBox="0 0 60 60" fill="none" xmlns="http://www.w3.org/2000/svg">
<path d="M45.6937 13.8H45.7275M16.5 57H43.5C50.9557 57 57 50.9557 57 43.5V16.5C57 9.04415 50.9557 3 43.5 3H16.5C9.04415 3 3 9.04415 3 16.5V43.5C3 50.9557 9.04415 57 16.5 57ZM42.6562 30C42.6562 36.99 36.99 42.6562 30 42.6562C23.0101 42.6562 17.3438 36.99 17.3438 30C17.3438 23.0101 23.0101 17.3438 30 17.3438C36.99 17.3438 42.6562 23.0101 42.6562 30Z" stroke="#0F1111" stroke-width="6" stroke-linecap="round" stroke-linejoin="round"/>
</svg>
