<svg width="63" height="63" viewBox="0 0 63 63" fill="none" xmlns="http://www.w3.org/2000/svg">
<path d="M3.03768 11.1297C5.84907 35.9824 27.0176 57.151 51.8705 59.9624C55.112 60.3288 57.9305 57.9763 58.5704 54.7773L59.8665 48.2954C60.4719 45.2692 58.9769 42.2125 56.2165 40.8321L51.9892 38.7188C49.2186 37.3333 45.8536 38.1275 43.9949 40.6059C42.7842 42.22 40.84 43.2041 38.9792 42.4239C32.5838 39.7433 23.2567 30.4161 20.5759 24.0208C19.7959 22.1602 20.78 20.2158 22.394 19.0052C24.8724 17.1465 25.6666 13.7815 24.2812 11.0107L22.1677 6.78356C20.7876 4.02323 17.7307 2.52818 14.7045 3.13342L8.22253 4.42981C5.02366 5.06958 2.671 7.88812 3.03768 11.1297Z" stroke="#0F1111" stroke-width="6" stroke-linecap="round" stroke-linejoin="round"/>
</svg>
